<?xml version="1.0" encoding="UTF-8"?>
<svg width="980" height="720" viewBox="0 0 980 720" fill="none" xmlns="http://www.w3.org/2000/svg" role="img" aria-label="College students collaborating">
  <defs>
    <linearGradient id="bg" x1="120" y1="40" x2="900" y2="680" gradientUnits="userSpaceOnUse">
      <stop stop-color="#F6F9FB"/>
      <stop offset="1" stop-color="#DDE7EC"/>
    </linearGradient>
    <linearGradient id="accent" x1="180" y1="140" x2="800" y2="580" gradientUnits="userSpaceOnUse">
      <stop stop-color="#2F7F87" stop-opacity="0.18"/>
      <stop offset="1" stop-color="#6AA3A8" stop-opacity="0.20"/>
    </linearGradient>
    <filter id="soft" x="0" y="0" width="980" height="720" filterUnits="userSpaceOnUse" color-interpolation-filters="sRGB">
      <feGaussianBlur stdDeviation="10"/>
    </filter>
  </defs>

  <!-- Background card -->
  <rect x="24" y="24" width="932" height="672" rx="44" fill="url(#bg)"/>
  <path d="M176 136C248 92 336 80 414 116C492 152 578 112 666 108C754 104 844 140 892 206C940 272 922 352 872 408C822 464 736 470 660 496C584 522 520 612 444 620C368 628 286 584 224 534C162 484 100 420 104 340C108 260 104 180 176 136Z" fill="url(#accent)"/>

  <!-- Desk -->
  <rect x="168" y="470" width="644" height="18" rx="9" fill="#C9D6DE"/>
  <rect x="210" y="488" width="560" height="88" rx="22" fill="#EFF4F7" stroke="#B9C8D2"/>

  <!-- Laptop -->
  <rect x="410" y="436" width="160" height="92" rx="16" fill="#FFFFFF" stroke="#B9C8D2"/>
  <rect x="424" y="450" width="132" height="56" rx="10" fill="#E8F0F4"/>
  <rect x="398" y="528" width="184" height="18" rx="9" fill="#B9C8D2"/>

  <!-- Student 1 -->
  <circle cx="306" cy="268" r="46" fill="#F4D7C7"/>
  <path d="M258 266C268 236 290 214 306 214C322 214 344 236 354 266C343 280 326 290 306 290C286 290 269 280 258 266Z" fill="#2B3A42" fill-opacity="0.85"/>
  <path d="M246 430C250 364 284 318 336 318C388 318 422 364 426 430" fill="#2F7F87" fill-opacity="0.92"/>
  <path d="M246 430H426V508C426 536 403 558 374 558H298C269 558 246 536 246 508V430Z" fill="#2F7F87" fill-opacity="0.92"/>

  <!-- Student 2 -->
  <circle cx="674" cy="272" r="44" fill="#F1D2BE"/>
  <path d="M632 274C642 244 662 224 676 224C694 224 716 248 724 276C714 288 696 296 674 296C654 296 640 288 632 274Z" fill="#2B3A42" fill-opacity="0.85"/>
  <path d="M616 432C620 366 654 322 704 322C754 322 788 366 792 432" fill="#6AA3A8" fill-opacity="0.92"/>
  <path d="M616 432H792V502C792 530 769 552 740 552H668C639 552 616 530 616 502V432Z" fill="#6AA3A8" fill-opacity="0.92"/>

  <!-- Student 3 (center, back) -->
  <circle cx="490" cy="226" r="38" fill="#F6D9C7"/>
  <path d="M454 226C462 202 476 188 490 188C508 188 524 206 530 230C520 242 506 248 490 248C474 248 462 242 454 226Z" fill="#2B3A42" fill-opacity="0.85"/>
  <path d="M430 420C438 364 462 336 490 336C520 336 544 364 552 420" fill="#FFFFFF" fill-opacity="0.72" stroke="#B9C8D2"/>

  <!-- Floating notes -->
  <g filter="url(#soft)" opacity="0.35">
    <circle cx="206" cy="174" r="18" fill="#2F7F87"/>
    <circle cx="792" cy="176" r="16" fill="#6AA3A8"/>
    <circle cx="830" cy="260" r="12" fill="#2F7F87"/>
  </g>
  <rect x="760" y="96" width="128" height="86" rx="18" fill="#FFFFFF" fill-opacity="0.70" stroke="#B9C8D2"/>
  <rect x="780" y="118" width="88" height="10" rx="5" fill="#E6EDF2"/>
  <rect x="780" y="138" width="64" height="10" rx="5" fill="#E6EDF2"/>
  <rect x="780" y="158" width="76" height="10" rx="5" fill="#E6EDF2"/>
</svg>
